<?xml version="1.0" encoding="utf-8"?>
<!-- Generator: Adobe Illustrator 21.1.0, SVG Export Plug-In . SVG Version: 6.00 Build 0)  -->
<!DOCTYPE svg PUBLIC "-//W3C//DTD SVG 1.1//EN" "http://www.w3.org/Graphics/SVG/1.1/DTD/svg11.dtd">
<svg version="1.1" id="Layer_1" xmlns="http://www.w3.org/2000/svg" xmlns:xlink="http://www.w3.org/1999/xlink" x="0px" y="0px"
	 width="500px" height="500px" viewBox="0 0 500 500" style="enable-background:new 0 0 500 500;" xml:space="preserve">
<path d="M487.6,339.9l-74-104l57.9-102.9c3.2-4.3,2.1-10.7,0-15L398.6,6.4c-3.2-4.3-7.5-6.4-11.8-6.4h-372C9.4,0,4.1,3.2,0.9,9.6
	c-2.1,5.4,0,11.8,3.2,15l56.8,56.8v378.5c0,8.6,6.4,15,15,15h308.8c1.1,0,1.1,0,2.1,0c4.3,0,8.6-2.1,11.8-5.4l90.1-111.5
	C491.9,352.7,491.9,345.2,487.6,339.9z M454.4,344.2l-122.2,34.3L271,302.3l86.8-75.1l23.6,13.9c0,2.1,1.1,4.3,2.1,5.4L454.4,344.2z
	 M89.9,109.4l116.9,144.7L89.9,421.4V109.4z M219.6,269.1l24.7,30L128.4,399.9L219.6,269.1z M231.4,253l49.3-70.8l59,34.3
	l-81.5,70.8L231.4,253z M218.5,236.9L93.1,81.5l12.9-2.1l158.7,92.2L218.5,236.9z M134.9,74l227.3-44h2.1l-87.9,126.5L134.9,74z
	 M110.2,59l-50.4-30h200.5L110.2,59z M114.5,438.5l142.6-123.3l55.8,68.6L114.5,438.5z M325.7,399.9l36.5,45H164.9L325.7,399.9z
	 M387.9,220.9l-13.9-7.5l37.5-32.2L387.9,220.9z M441.5,126.5l-1.1,3.2l-84.7,72.9l-63.3-36.5l90.1-128.7L441.5,126.5z M383.6,439.6
	l-36.5-45l94.3-26.8L383.6,439.6z"/>
</svg>
