<?xml version="1.0" encoding="utf-8"?>
<!-- Generator: Adobe Illustrator 21.1.0, SVG Export Plug-In . SVG Version: 6.00 Build 0)  -->
<!DOCTYPE svg PUBLIC "-//W3C//DTD SVG 1.1//EN" "http://www.w3.org/Graphics/SVG/1.1/DTD/svg11.dtd">
<svg version="1.1" id="Layer_1" xmlns="http://www.w3.org/2000/svg" xmlns:xlink="http://www.w3.org/1999/xlink" x="0px" y="0px"
	 width="50px" height="50px" viewBox="0 0 50 50" style="enable-background:new 0 0 50 50;" xml:space="preserve">
<path d="M49.4,34.4l-7.5-10.5l5.9-10.4c0.3-0.4,0.2-1.1,0-1.5L40.4,0.7C40,0.2,39.6,0,39.2,0H1.5C1,0,0.4,0.3,0.1,1
	c-0.2,0.5,0,1.2,0.3,1.5l5.8,5.8v38.3c0,0.9,0.7,1.5,1.5,1.5h31.3c0.1,0,0.1,0,0.2,0c0.4,0,0.9-0.2,1.2-0.5l9.1-11.3
	C49.8,35.7,49.8,35,49.4,34.4z M46,34.8l-12.4,3.5l-6.2-7.7l8.8-7.6l2.4,1.4c0,0.2,0.1,0.4,0.2,0.5L46,34.8z M9.1,11.1l11.8,14.7
	L9.1,42.7V11.1z M22.2,27.2l2.5,3L13,40.5L22.2,27.2z M23.4,25.6l5-7.2l6,3.5l-8.2,7.2L23.4,25.6z M22.1,24L9.4,8.2L10.7,8l16.1,9.3
	L22.1,24z M13.7,7.5l23-4.5h0.2L28,15.8L13.7,7.5z M11.2,6l-5.1-3h20.3L11.2,6z M11.6,44.4L26,31.9l5.6,6.9L11.6,44.4z M33,40.5
	l3.7,4.6h-20L33,40.5z M39.3,22.4l-1.4-0.8l3.8-3.3L39.3,22.4z M44.7,12.8l-0.1,0.3L36,20.5l-6.4-3.7l9.1-13L44.7,12.8z M38.8,44.5
	l-3.7-4.6l9.6-2.7L38.8,44.5z"/>
</svg>