<?xml version="1.0" encoding="utf-8"?>
<!-- Generator: Adobe Illustrator 21.1.0, SVG Export Plug-In . SVG Version: 6.00 Build 0)  -->
<!DOCTYPE svg PUBLIC "-//W3C//DTD SVG 1.1//EN" "http://www.w3.org/Graphics/SVG/1.1/DTD/svg11.dtd">
<svg version="1.1" id="Layer_1" xmlns="http://www.w3.org/2000/svg" xmlns:xlink="http://www.w3.org/1999/xlink" x="0px" y="0px"
	 width="50px" height="50px" viewBox="0 0 50 50" style="enable-background:new 0 0 50 50;" xml:space="preserve">
<path d="M47.9,34.8L41,25.1l5.4-9.6c0.3-0.4,0.2-1,0-1.4L39.6,3.7c-0.3-0.4-0.7-0.6-1.1-0.6H3.8C3.3,3.1,2.8,3.4,2.5,4
	C2.3,4.5,2.5,5.1,2.8,5.4l5.3,5.3V46c0,0.8,0.6,1.4,1.4,1.4h28.8c0.1,0,0.1,0,0.2,0c0.4,0,0.8-0.2,1.1-0.5l8.4-10.4
	C48.3,36,48.3,35.3,47.9,34.8z M44.8,35.2l-11.4,3.2l-5.7-7.1l8.1-7l2.2,1.3c0,0.2,0.1,0.4,0.2,0.5L44.8,35.2z M10.8,13.3l10.9,13.5
	L10.8,42.4V13.3z M22.9,28.2l2.3,2.8l-10.8,9.4L22.9,28.2z M24,26.7l4.6-6.6l5.5,3.2l-7.6,6.6L24,26.7z M22.8,25.2L11.1,10.7
	l1.2-0.2l14.8,8.6L22.8,25.2z M15,10l21.2-4.1h0.2l-8.2,11.8L15,10z M12.7,8.6L8,5.8h18.7L12.7,8.6z M13.1,44l13.3-11.5l5.2,6.4
	L13.1,44z M32.8,40.4l3.4,4.2H17.8L32.8,40.4z M38.6,23.7L37.3,23l3.5-3L38.6,23.7z M43.6,14.9l-0.1,0.3L35.6,22l-5.9-3.4l8.4-12
	L43.6,14.9z M38.2,44.1l-3.4-4.2l8.8-2.5L38.2,44.1z"/>
</svg>
